<?xml version="1.0" encoding="UTF-8"?>
<svg id="Layer_1" xmlns="http://www.w3.org/2000/svg" version="1.1" viewBox="0 0 2000 2000">
  <!-- Generator: Adobe Illustrator 30.2.1, SVG Export Plug-In . SVG Version: 2.1.1 Build 1)  -->
  <defs>
    <style>
      .st0 {
        fill: #6b4f3a;
      }
    </style>
  </defs>
  <g>
    <path class="st0" d="M440.7,658.2c-5.5,1.5-4.2,7.5-1.8,13l59.1,134.1,64.8-147.1h9.4c-.2,0-.4.2-1.1.4-5.3,1.8-6.4,7.5-6.4,12.5v127.8c0,5.5,1.3,11.4,7.5,13h-20.6c6.1-1.5,7.5-7.5,7.5-13v-127.8l-61.9,140.7h-2v-.2l-61.7-140.5c-1.1-2.4-2.2-4.6-3.7-6.6v134.4c0,5.5,1.1,11.4,7.2,13h-16.7c6.1-1.5,7.5-7.5,7.5-13v-136.5c-2.2-2.2-4.6-3.5-7.5-4.2h20.4Z"/>
    <path class="st0" d="M592.6,799l51.4-140.7h2.2l39.1,107.1c2,5.5,5.5,11.4,12.3,13h-20.6c5.5-1.5,4.6-7.5,2.6-13l-17.6-47.9c-55.5,7-49.2,96.8,14,95.1,24.6-.7,48.5-19.3,48.5-54.4v-86.9c0-5.5-1.3-11.4-7.5-13h55.5c77.9,0,77.9,101.9,0,101.9h-12.5c29.4,8.6,43.9,51.1,69.4,50.3h2.9c1.1,0,1.1,1.5,0,1.5h-4.6c-36.7,0-51.4-50.9-79.2-51.8h-18.2c0,35.8-26.8,53.8-54,54.4-67.6,1.5-71.8-90.9-14.9-98.8l-18-49.6-48.5,132.8c-2,5.5-2.9,11.4,2.6,13h-16.9c6.8-1.5,10.1-7.5,12.1-13ZM730.2,758.6h42.4c69.6,0,69.6-98.8,0-98.8h-42.4v98.8Z"/>
    <path class="st0" d="M829.2,658.2h20.6c-5.3,1.5-3.5,7.5-.7,13l41.9,80.1,41.5-80.1c2.9-5.5,4.4-10.1-.7-13h17.3c-7,1.5-11.4,7.5-14.3,13l-42.6,82.5v45.2c0,5.5,1.1,11.4,7.2,13h-20.4c6.1-1.5,7.2-7.5,7.2-13v-45.2l-43-82.5c-2.9-5.5-7.2-11.4-14.3-13Z"/>
    <path class="st0" d="M1082.4,658.2c77.9,0,77.9,101.9,0,101.9h-42.4v38.9c0,5.5,1.3,11.4,7.5,13h-20.6c6.1-1.5,7.5-7.5,7.5-13v-127.8c0-5.5-1.3-11.4-7.5-13h55.5ZM1082.4,758.6c70,0,69.6-98.8,0-98.8h-42.4v98.8h42.4Z"/>
    <path class="st0" d="M1140.7,799l51.4-140.7h2.2l39.1,107.1c2,5.5,5.5,11.4,12.3,13h-20.6c5.5-1.5,4.6-7.5,2.6-13l-17.6-47.9c-55.5,7-49.2,96.8,14,95.1,24.6-.7,48.5-19.3,48.5-54.4v-86.9c0-5.5-1.3-11.4-7.5-13h55.5c77.9,0,77.9,101.9,0,101.9h-12.5c29.4,8.6,43.9,51.1,69.4,50.3h2.9c1.1,0,1.1,1.5,0,1.5h-4.6c-36.7,0-51.4-50.9-79.2-51.8h-18.2c0,35.8-26.8,53.8-54,54.4-67.6,1.5-71.8-90.9-14.9-98.8l-18-49.6-48.5,132.8c-2,5.5-2.9,11.4,2.6,13h-16.9c6.8-1.5,10.1-7.5,12.1-13ZM1278.4,758.6h42.4c69.6,0,69.6-98.8,0-98.8h-42.4v98.8Z"/>
    <path class="st0" d="M1416.5,658.2c-6.1,1.5-7.5,7.5-7.5,13v75.1l65.4-75.1c4.6-5.5,7.5-10.1,3.7-13h17.3c-7.7,1.5-13.8,7.2-18.7,13l-41.3,47h.7c37.3,0,42.8,92.2,71.6,92.2h2.9c.9,0,.9,1.5,0,1.5h-4.6c-37.3,0-42.8-92.2-71.6-92.2h-.2l-25.2,28.8v50.5c0,5.5,1.3,11.4,7.5,13h-20.6c6.1-1.5,7.5-7.5,7.5-13v-127.8c0-5.5-1.3-11.4-7.5-13h20.6Z"/>
  </g>
  <g>
    <path class="st0" d="M486.4,868.3c0,19.1-12.5,36.8-38.6,36.8v46.3c0,10.7,2.1,13.8,12.2,13.8v.6h-33.6v-.6c10.1,0,12.2-3.2,12.2-13.8v-102.5c0-10.7-2.1-13.8-12.2-13.8v-.6h25.6c22.7,0,34.5,16.4,34.5,33.9h0ZM447.7,835.6v68.2h2.5c17.5,0,26.7-17.4,26.7-35.4s-8.9-32.8-27.5-32.8h-1.6Z"/>
    <path class="st0" d="M568.3,848.8v102.5c0,10.7,2.1,13.8,12.2,13.8v.6h-33.6v-.6c10,0,12.2-3.2,12.2-13.8v-62.4h-44.1v62.4c0,10.7,2.1,13.8,12.2,13.8v.6h-33.6v-.6c10.1,0,12.2-3.2,12.2-13.8v-102.5c0-10.7-2.1-13.8-12.2-13.8v-.6h33.6v.6c-10,0-12.2,3.2-12.2,13.8v38.9h44.1v-38.9c0-10.7-2.1-13.8-12.2-13.8v-.6h33.6v.6c-10,0-12.2,3.2-12.2,13.8Z"/>
    <path class="st0" d="M718.9,898.8c0,37-28.7,67-65.7,67s-65.7-30-65.7-67,28.7-67,65.7-67,65.7,30,65.7,67ZM709.5,898.8c0-37-27.7-65.7-58.9-65.7s-53.9,28.7-53.9,65.7,27.7,65.7,58.9,65.7,53.9-28.7,53.9-65.7Z"/>
    <path class="st0" d="M787.3,834.3v35.8h-.6c0-34.3-7.6-34.5-23.4-34.5h-2.8v115.8c0,10.7,2.1,13.8,12.2,13.8v.6h-33.6v-.6c10,0,12.2-3.2,12.2-13.8v-115.8h-2.5c-16,0-23.7,0-23.7,34.5h-.6v-35.8h63Z"/>
    <path class="st0" d="M926.4,898.8c0,37-28.7,67-65.7,67s-65.7-30-65.7-67,28.7-67,65.7-67,65.7,30,65.7,67ZM917.1,898.8c0-37-27.7-65.7-58.9-65.7s-53.9,28.7-53.9,65.7,27.7,65.7,58.9,65.7,53.9-28.7,53.9-65.7Z"/>
    <path class="st0" d="M990.4,911.1c0,13.9,43.7,13.6,43.7,35.5s-10.7,21.6-32.5,21.6c-36.1,0-64.1-29.2-64.1-65.3s28-65.3,64.1-65.3,30.7,4.6,40,4.6,4.2-.3,5.8-.9v44.6h-.6c0-32.2-17.9-47-47.6-47s-52.6,28-52.6,64.1,27,64.1,57.4,64.1,29-9.7,29-20.4c0-21-43.7-20.7-43.7-35.3s11.4-12,35.2-12v.6c-26.2,0-34.1,5.4-34.1,11.2h0ZM1062.2,899.9c-9.8,0-11.9,3.1-11.9,13.5v39.5c0,10.4,2.1,13.5,11.9,13.5v.6h-20.9v-53.6c0-10.4-6.9-13.5-16.7-13.5v-.6h37.6v.6Z"/>
    <path class="st0" d="M1209.3,983.4s-9.1,5.9-23.2,5.9c-39.4,0-56.4-28.7-67.3-47.6-5.4-9.3-18-33.9-20.7-39-1.7.2-3.5.3-5.3.3v48.8c0,10.4,2.1,13.5,11.9,13.5v.6h-32.8v-.6c9.8,0,11.9-3.1,11.9-13.5v-100c0-10.4-2.1-13.5-11.9-13.5v-.6h24.9c22.1,0,33.7,15.7,33.7,31.9s-8.2,27.4-25.2,31.9c1,1.9,13.8,25.7,20.1,36.6,12.9,22.3,29.5,50.1,63.2,50.1s13.1-1.7,20-5.3l.7.6ZM1121.3,869.6c0-15.5-8.7-30.8-26.8-30.8h-1.6v62.9h2.4c17.1,0,26-15.8,26-32.1Z"/>
    <path class="st0" d="M1244,965.1v.6h-33.6v-.6c10.1,0,10.8-3.9,9.3-12.6l-11.1-51.3h-26.6l-10.4,50c-1.4,8.7-.9,13.8,9.2,13.8v.6h-27.1v-.6c10.1,0,13.9-3.4,16.4-13.8l26.9-129.4h1.2l30.4,130.6c2.5,10.5,5.2,12.6,15.3,12.6ZM1208.4,900.1l-13.3-61.6-12.8,61.6h26.1Z"/>
    <path class="st0" d="M1305.1,868.3c0,19.1-12.5,36.8-38.6,36.8v46.3c0,10.7,2.1,13.8,12.2,13.8v.6h-33.6v-.6c10.1,0,12.2-3.2,12.2-13.8v-102.5c0-10.7-2.1-13.8-12.2-13.8v-.6h25.6c22.7,0,34.5,16.4,34.5,33.9h0ZM1266.5,835.6v68.2h2.5c17.5,0,26.7-17.4,26.7-35.4s-8.9-32.8-27.5-32.8h-1.6Z"/>
    <path class="st0" d="M1387,848.8v102.5c0,10.7,2.1,13.8,12.2,13.8v.6h-33.6v-.6c10,0,12.2-3.2,12.2-13.8v-62.4h-44.1v62.4c0,10.7,2.1,13.8,12.2,13.8v.6h-33.6v-.6c10.1,0,12.2-3.2,12.2-13.8v-102.5c0-10.7-2.1-13.8-12.2-13.8v-.6h33.6v.6c-10,0-12.2,3.2-12.2,13.8v38.9h44.1v-38.9c0-10.7-2.1-13.8-12.2-13.8v-.6h33.6v.6c-10,0-12.2,3.2-12.2,13.8Z"/>
    <path class="st0" d="M1501.8,834.3v.6c-10,0-14.7,3.4-18.7,13.8h0s-23.2,63.3-23.2,63.3v39.3c0,10.7,2.1,13.8,12.2,13.8v.6h-33.6v-.6c10.1,0,12.2-3.2,12.2-13.8v-39.3l-23.4-64.5c-3.9-10.4-6.9-12.6-17-12.6v-.6h33.6v.6c-9.5,0-10.2,4-8.1,11.3l22.7,65.7,24.2-65.8c2-7.1,1.1-11.2-7.9-11.2v-.6h27.1Z"/>
  </g>
</svg>